<?xml version="1.0" encoding="UTF-8"?>
<svg xmlns="http://www.w3.org/2000/svg" viewBox="0 0 431.8 290.41">
  <defs>
    <style>
      .cls-1, .cls-2 {
        fill: #fff;
        fill-rule: evenodd;
      }

      .cls-3 {
        isolation: isolate;
      }

      .cls-2 {
        mix-blend-mode: multiply;
      }
    </style>
  </defs>
  <g class="cls-3">
    <g id="Layer_1" data-name="Layer 1">
      <g>
        <path class="cls-1" d="M293.08,172.74c-7.1-9.14-14.09-18.39-21.19-27.54-11.19-14.52-22.48-29.04-33.67-43.56-11.29-14.63-33.24-14.63-44.53,0-11.19,14.52-22.37,29.04-33.67,43.56l-30.33,39.8-81.1,101.86c-3.23-1.83-6.02-4.3-8.39-7.42-11.4-14.74-22.91-29.47-34.31-44.32-7.85-10.22-7.85-23.99,0-34.31,14.2-18.5,28.5-37.11,42.7-55.61,18.61-24.09,37.32-48.29,55.93-72.39,15.7-20.54,31.41-41.2,47.11-61.74,5.49-7.21,13.23-11.08,22.37-11.08h84c9.04,0,16.78,3.87,22.37,10.97,15.81,20.65,31.62,41.2,47.43,61.85,18.5,24.09,36.89,48.29,55.39,72.39,14.2,18.5,28.5,37.11,42.7,55.61,7.85,10.33,7.85,24.09,0,34.31-11.51,14.84-22.91,29.58-34.31,44.32-5.49,7.21-13.23,10.97-22.27,10.97h-196.08c-9.04,0-16.78-3.76-22.27-10.97-15.81-20.44-31.62-40.98-47.43-61.42h167.15c23.45,0,36.57-26.78,22.37-45.28h0Z"/>
        <path class="cls-1" d="M22.24,256.32l-16.35-21.19c-7.85-10.22-7.85-23.99,0-34.31,14.2-18.5,28.5-37.11,42.7-55.61,18.61-24.09,37.32-48.29,55.93-72.39l37.86-49.69c15.17,1.29,31.3,3.44,48.51,6.67,21.73-2.9,31.09,8.28,27.75,33.56-18.5-11.51-40.66-3.87-66.15,23.02-52.7,67.23-96.05,123.91-130.26,169.95h0Z"/>
        <path class="cls-2" d="M255.11,123.37l-16.89-21.73c-11.29-14.63-33.24-14.63-44.53,0-2.8,3.66-5.81,7.53-8.93,11.51-.97-39.04-35.6-56.04-70.88-52.49h0l7.85-10.43c17.53-19.68,43.56-30.33,70.34-28.18,31.09,2.58,58.41,21.94,70.99,50.55,3.98,21.83,1.29,38.72-7.96,50.77h0Z"/>
        <path class="cls-1" d="M293.08,172.74c-7.1-9.14-14.09-18.39-21.19-27.54-11.19-14.52-22.48-29.04-33.67-43.56-25.17-34.96-78.84-66.04-124.34-40.98l37.75-49.59c5.49-7.21,13.23-11.08,22.37-11.08h84c9.04,0,16.78,3.87,22.37,10.97,15.81,20.65,31.62,41.2,47.43,61.85,18.5,24.09,36.89,48.29,55.39,72.39l9.25,12.05c-4.52,9.9-10.97,19.47-19.36,28.72-67.33,65.4-107.45,76.05-120.58,32.05h18.18c23.45,0,36.57-26.78,22.37-45.28h0Z"/>
        <path class="cls-1" d="M151.63,11.08c5.49-7.21,13.23-11.08,22.37-11.08h84c9.04,0,16.78,3.87,22.37,10.97,15.81,20.65,31.62,41.2,47.43,61.85,18.5,24.09,36.89,48.29,55.39,72.39l9.25,12.05c-4.52,9.9-10.97,19.47-19.36,28.72-9.68,9.36-18.72,17.53-27.21,24.63,3.55-23.34-3.12-46.14-19.9-68.19-17.64-20.97-42.81-54.43-75.51-100.25-21.73-26.46-56.47-37-98.85-31.09h0Z"/>
        <path class="cls-2" d="M379.34,140.15l3.87,5.06,9.25,12.05c-4.52,9.9-10.97,19.47-19.36,28.72-12.8,12.37-24.52,22.8-35.39,31.3-5.92.86-12.15,1.72-18.72,2.47-23.13,9.9-41.73,15.81-55.82,17.75-4.63-4.52-8.17-10.97-10.65-19.47h18.18c20.97,0,33.77-21.51,25.92-39.26,33.56-.75,59.8-12.91,82.71-38.61h0Z"/>
        <path class="cls-1" d="M379.34,140.15l3.87,5.06c14.2,18.5,28.5,37.11,42.7,55.61,7.85,10.33,7.85,24.09,0,34.31-11.4,14.84-22.91,29.58-34.31,44.32-5.49,7.21-13.23,10.97-22.27,10.97h-196.08c-9.04,0-16.78-3.76-22.27-10.97-15.81-20.44-31.62-40.98-47.43-61.42h167.15c49.59,0,93.36-30.22,108.64-77.87h0Z"/>
        <path class="cls-1" d="M408.17,177.8l17.75,23.02c7.85,10.33,7.85,24.09,0,34.31-11.4,14.84-22.91,29.58-34.31,44.32-5.49,7.21-13.23,10.97-22.27,10.97h-196.08c-9.04,0-16.78-3.76-22.27-10.97l-22.16-28.61c74.65.32,139.94.32,195.87,0,21.73-4.41,36.79-13.34,45.07-26.68,14.09-16.67,26.89-32.16,38.4-46.36h0Z"/>
      </g>
    </g>
  </g>
</svg>